HIERARCHY
ROOT Hips
{
	OFFSET 0.027329 -0.436096 0.279869
	CHANNELS 6 Xposition Yposition Zposition Zrotation Yrotation Xrotation 
	JOINT LeftUpLeg
	{
		OFFSET 1.363060 -1.794630 0.000000
		CHANNELS 3 Zrotation Yrotation Xrotation
		JOINT LeftLeg
		{
			OFFSET 2.448070 -6.726130 0.000295
			CHANNELS 3 Zrotation Yrotation Xrotation
			JOINT LeftFoot
			{
				OFFSET 2.562200 -7.039590 0.000036
				CHANNELS 3 Zrotation Yrotation Xrotation
				JOINT LeftToeBase
				{
					OFFSET 0.157640 -0.433110 2.322550
					CHANNELS 3 Zrotation Yrotation Xrotation
				}
			}
		}
	}
	JOINT RightUpLeg
	{
		OFFSET -1.305520 -1.794630 0.000000
		CHANNELS 3 Zrotation Yrotation Xrotation
		JOINT RightLeg
		{
			OFFSET -2.542340 -6.985620 -0.000396
			CHANNELS 3 Zrotation Yrotation Xrotation
			JOINT RightFoot
			{
				OFFSET -2.568260 -7.056230 -0.000045
				CHANNELS 3 Zrotation Yrotation Xrotation
				JOINT RightToeBase
				{
					OFFSET -0.164730 -0.452590 2.363150
					CHANNELS 3 Zrotation Yrotation Xrotation
				}
			}
		}
	}
	JOINT Spine
	{
		OFFSET 0.028270 2.035590 0.000000
		CHANNELS 3 Zrotation Yrotation Xrotation
		JOINT Spine1
		{
			OFFSET 0.056720 2.048850 -0.042750
			CHANNELS 3 Zrotation Yrotation Xrotation
			JOINT Neck1
			{
				OFFSET -0.054170 1.746240 0.172020
				CHANNELS 3 Zrotation Yrotation Xrotation
				JOINT Head
				{
					OFFSET 0.104070 1.761360 -0.123970
					CHANNELS 3 Zrotation Yrotation Xrotation
				}
			}
			JOINT LeftArm
			{
				OFFSET 3.362410 1.200890 -0.311211
				CHANNELS 3 Zrotation Yrotation Xrotation
				JOINT LeftForeArm
				{
					OFFSET 4.983000 0.000197 0.000166
					CHANNELS 3 Zrotation Yrotation Xrotation
					JOINT LeftHand
					{
						OFFSET 3.483560 0.000000 0.000019
						CHANNELS 3 Zrotation Yrotation Xrotation
						JOINT LeftHandIndex1
						{
							OFFSET 0.715260 0.000000 0.000000
							CHANNELS 3 Zrotation Yrotation Xrotation
						}
					}
				}
			}
			JOINT RightArm
			{
				OFFSET -3.136600 1.374050 -0.404651
				CHANNELS 3 Zrotation Yrotation Xrotation
				JOINT RightForeArm
				{
					OFFSET -5.241900 -0.000059 -0.000166
					CHANNELS 3 Zrotation Yrotation Xrotation
					JOINT RightHand
					{
						OFFSET -3.444170 0.000000 -0.000020
						CHANNELS 3 Zrotation Yrotation Xrotation
						JOINT RightHandIndex1
						{
							OFFSET -0.622530 0.000000 0.000000
							CHANNELS 3 Zrotation Yrotation Xrotation
						}
					}
				}
			}
		}
	}
}
MOTION
Frames: 6
Frame Time: 0.016667
0.919482 16.921360 0.055541 -0.331630 2.311380 -0.689023 -22.448349 0.707637 -13.719165 1.388613 2.947662 27.906541 3.497683 -5.014533 -12.973918 0.000000 0.000000 -0.000000 14.397479 -0.431165 -32.970155 -14.175453 -19.263667 71.072434 6.754515 0.906777 -2.121245 -0.000000 -0.000000 0.000000 -0.479878 -3.700730 5.114122 0.000000 0.000000 -0.000000 0.704052 0.192740 -3.730021 0.000000 0.000000 0.000000 -79.851814 -17.642064 34.175735 0.952623 -17.078535 0.434944 1.362568 -2.538642 0.486059 0.000000 -0.000000 0.000000 78.153379 7.793668 23.763012 -0.970585 1.986765 0.122399 -3.017820 5.515986 -13.157914 -0.000000 0.000000 0.000000 
0.880424 17.029953 0.002808 -0.193730 2.773053 -0.538256 -22.794893 2.986581 -9.571862 1.974775 0.899880 23.769813 2.822207 -5.997139 -12.973833 -0.000000 0.000000 0.000000 14.216991 1.042125 -36.277853 -12.713703 -18.963139 65.843665 6.763416 2.008043 -4.719684 -0.000000 0.000000 -0.000000 -0.756683 -4.338665 5.153879 -0.000000 0.000000 -0.000000 1.018755 0.541620 -3.704306 0.000000 -0.000000 -0.000000 -79.175213 -20.424685 37.583877 0.947149 -21.901544 0.532708 2.122925 -2.296166 0.209508 0.000000 0.000000 0.000000 78.883256 5.127620 20.956491 -0.970612 1.962376 0.121878 -0.650237 5.678583 -11.831396 0.000000 -0.000000 0.000000 
0.833900 17.101826 -0.042800 0.052322 3.266375 -0.222412 -22.999162 5.465134 -5.458849 2.671837 -1.106347 19.317244 2.123386 -7.208050 -12.973193 -0.000000 0.000000 0.000000 14.047253 2.464597 -39.128804 -11.471649 -18.230937 59.319566 6.783214 2.993916 -7.097127 -0.000000 -0.000000 -0.000000 -1.130596 -4.915970 5.164620 -0.000000 0.000000 -0.000000 1.430103 1.019239 -3.684824 0.000000 0.000000 0.000000 -78.472238 -22.990464 41.238498 0.908886 -27.050276 0.656838 3.080160 -1.923200 -0.071187 0.000000 0.000000 0.000000 79.738168 2.431391 18.350109 -0.970788 1.958886 0.121802 1.946736 5.746182 -10.317206 -0.000000 0.000000 -0.000000 
0.780828 17.137590 -0.074997 0.556316 3.894598 0.145751 -23.086447 8.041467 -1.193982 3.570984 -3.187032 14.486594 1.365242 -8.423037 -12.599198 0.000000 0.000000 0.000000 13.825577 3.966105 -42.011884 -10.293821 -17.344459 52.704386 6.795974 4.066604 -9.652334 -0.000000 0.000000 0.000000 -1.541131 -5.499678 5.152100 0.000000 -0.000000 0.000000 2.039976 1.185299 -3.582988 0.000000 -0.000000 -0.000000 -78.129281 -25.150510 45.105573 0.787760 -32.214915 0.825669 4.643270 -1.751272 -0.323662 -0.000000 0.000000 -0.000000 80.864910 -0.352996 15.785306 -0.971482 2.094826 0.124573 4.360154 5.860195 -8.692687 -0.000000 0.000000 0.000000 
0.723040 17.154278 -0.090916 1.213703 4.577931 0.626523 -23.098854 10.545174 2.513294 4.396290 -4.354898 10.355225 0.742770 -10.577866 -12.225687 0.000000 0.000000 0.000000 13.692038 4.901209 -43.569970 -9.302228 -15.809726 44.802880 6.841688 4.723538 -11.322661 -0.000000 0.000000 0.000000 -2.222360 -6.061172 5.064475 0.000000 0.000000 -0.000000 2.433648 1.222635 -3.508800 -0.000000 0.000000 -0.000000 -77.626698 -27.282898 48.856372 0.637519 -37.186638 1.007487 7.001655 -1.494611 -0.541603 0.000000 0.000000 -0.000000 82.159705 -2.954234 13.268556 -0.972025 2.331843 0.129454 6.570032 6.012144 -6.901625 -0.000000 0.000000 -0.000000 
0.660729 17.125908 -0.096264 2.049279 5.312581 1.304494 -23.064311 12.742332 4.613971 4.744914 -2.746242 8.407556 0.595226 -15.331839 -12.237714 -0.000000 -0.000000 0.000000 13.704271 5.018043 -42.178865 -8.730455 -12.814035 33.442496 7.187526 4.795120 -11.632076 0.000000 0.000000 -0.000000 -3.874798 -6.716385 4.692877 -0.000000 0.000000 -0.000000 2.333051 0.839454 -3.516858 0.000000 0.000000 -0.000000 -76.233959 -29.842721 52.130161 0.518661 -41.754579 1.178640 10.747626 -0.954376 -0.661977 0.000000 -0.000000 -0.000000 83.736903 -5.133307 10.705843 -0.971424 2.600283 0.135132 8.381489 6.236544 -4.898017 0.000000 0.000000 -0.000000 
